<?xml version="1.0" encoding="utf-8"?>
<!-- Generator: Adobe Illustrator 23.0.4, SVG Export Plug-In . SVG Version: 6.00 Build 0)  -->
<svg version="1.1" id="Layer_1" xmlns:svgjs="http://svgjs.com/svgjs"
	 xmlns="http://www.w3.org/2000/svg" xmlns:xlink="http://www.w3.org/1999/xlink" x="0px" y="0px" viewBox="0 0 512 512"
	 style="enable-background:new 0 0 512 512;" xml:space="preserve">
<style type="text/css">
	.st0{fill:#FFFFFF;}
</style>
<g>
	<path class="st0" d="M-160.7,49.3h-26.9v-63.2c0-3.3-2.7-6-6-6c-0.6,0-1.2,0.1-1.7,0.2l-232.6,69c-12.3,0.7-21.9,10.8-21.9,23.1
		V449c0,12.8,10.4,23.1,23.1,23.1h266c12.8,0,23.1-10.4,23.1-23.1V72.4C-137.6,59.6-148,49.3-160.7,49.3z M-199.6-5.9v55.1h-186
		L-199.6-5.9z M-149.6,449c0,6.1-5,11.1-11.1,11.1h-266c-6.1,0-11.1-5-11.1-11.1V72.4c0-4,2.1-7.6,5.5-9.6l0.1,0.3l6.1-1.8h265.4
		c6.1,0,11.1,5,11.1,11.1V449z"/>
	<path class="st0" d="M-207.2,347.9h-173c-3.3,0-6,2.7-6,6s2.7,6,6,6h173c3.3,0,6-2.7,6-6S-203.9,347.9-207.2,347.9z"/>
	<path class="st0" d="M-254.2,388.1h-79c-3.3,0-6,2.7-6,6s2.7,6,6,6h79c3.3,0,6-2.7,6-6S-250.9,388.1-254.2,388.1z"/>
	<path class="st0" d="M-293.7,123.7c-49.8,0-90.3,40.4-90.3,90.3s40.4,90.3,90.3,90.3s90.3-40.4,90.3-90.3
		C-203.5,164.1-243.9,123.7-293.7,123.7L-293.7,123.7z M-321.1,140.8c-7.4,7.7-13.3,16.6-17.5,26.4c-3.7-2.6-7.1-5.4-10.3-8.6
		C-341,150.6-331.5,144.6-321.1,140.8L-321.1,140.8z M-356.7,167.6c4.3,4.1,8.9,7.9,13.9,11.1c-2.8,9.5-4.4,19.4-4.8,29.3h-24.1
		C-370.6,193.4-365.4,179.4-356.7,167.6L-356.7,167.6z M-371.7,219.9h24.1c0.4,9.9,2,19.8,4.8,29.3c-5,3.2-9.6,6.9-13.9,11.1
		C-365.4,248.6-370.6,234.6-371.7,219.9L-371.7,219.9z M-348.8,269.4c3.2-3.2,6.6-6,10.3-8.6c4.2,9.8,10.1,18.7,17.5,26.4
		C-331.5,283.3-341,277.2-348.8,269.4z M-299.7,289.2c-12.6-7.8-22.3-19.8-28.4-34.6c8.9-4.4,18.6-7,28.4-7.7V289.2z M-299.7,234.9
		c-11.2,0.7-22.2,3.6-32.3,8.3c-2-7.6-3.2-15.4-3.6-23.3h35.9V234.9z M-299.7,207.9h-35.9c0.4-7.9,1.6-15.7,3.6-23.3
		c10.2,4.8,21.1,7.6,32.3,8.3L-299.7,207.9z M-299.7,180.9c-9.9-0.7-19.5-3.4-28.4-7.7c6.2-14.8,15.9-26.7,28.4-34.5V180.9z
		 M-238.5,158.5c-3.2,3.2-6.6,6.1-10.3,8.6c-4.2-9.8-10.1-18.8-17.5-26.5C-255.9,144.6-246.4,150.8-238.5,158.5z M-287.7,138.7
		c12.6,7.9,22.3,19.8,28.5,34.6c-8.9,4.4-18.6,7-28.5,7.7V138.7z M-287.7,193c11.2-0.7,22.2-3.5,32.4-8.3c2,7.6,3.2,15.4,3.6,23.2
		h-36V193z M-287.7,219.9h35.9c-0.4,7.8-1.5,15.6-3.6,23.2c-10.2-4.8-21.2-7.6-32.4-8.3V220L-287.7,219.9z M-287.7,289.2v-42.3
		c9.9,0.7,19.6,3.3,28.5,7.7C-265.4,269.4-275.1,281.4-287.7,289.2L-287.7,289.2z M-266.3,287.2c7.4-7.7,13.3-16.7,17.5-26.5
		c3.7,2.6,7.1,5.5,10.3,8.6C-246.4,277.2-255.9,283.3-266.3,287.2z M-230.7,260.3c-4.2-4.2-8.9-7.9-13.9-11.1
		c2.8-9.5,4.4-19.3,4.8-29.2h24.1C-216.8,234.5-222,248.5-230.7,260.3z M-239.8,207.9c-0.4-9.9-2-19.7-4.8-29.2
		c5-3.2,9.6-7,13.9-11.1c8.7,11.8,13.9,25.7,15,40.3H-239.8z"/>
</g>
<path class="st0" d="M305,168.3c-0.2-0.3-0.5-0.5-0.7-0.7c-20.7-21.9-49.6-35.9-81.7-37.3l-0.2-0.1l-5.2-0.1l-5.2,0.1l-0.2,0.1
	c-32.1,1.4-60.9,15.4-81.7,37.3c-0.2,0.3-0.6,0.4-0.8,0.7c0,0.1,0,0.1-0.1,0.2c-19.9,21.4-32.2,50.1-32.2,81.6
	c0,30.3,11.4,58,30,79.1c0.1,0.1,0.1,0.2,0.2,0.4c0.3,0.4,0.7,0.7,1.1,1c20.9,23,50.4,37.9,83.5,39.3l0.2,0.1l5.2,0.1l5.2-0.1
	l0.2-0.2c33.3-1.5,63-16.5,83.9-39.7c0.2-0.2,0.5-0.4,0.8-0.6c0.1-0.1,0.1-0.2,0.2-0.4c18.6-21.1,30-48.8,30-79.1
	c0-31.5-12.3-60.1-32.2-81.6C305.1,168.4,305.1,168.3,305,168.3L305,168.3z M194.2,146.7c-9.9,10.6-18.1,22.5-24.5,35.3
	c-7.9-2.9-15.6-6.5-22.9-10.9C160,159.3,176.2,150.7,194.2,146.7L194.2,146.7z M136.7,181.4c8.7,5.4,17.8,10,27.3,13.5
	c-5.9,15.2-9.3,31.3-10.1,48h-42.2C113.2,219.6,122.3,198.3,136.7,181.4L136.7,181.4z M134.5,316c-13.1-16.4-21.4-36.7-22.8-58.9
	h42.2c0.7,15.4,3.7,30.3,8.8,44.5C152.8,305.4,143.4,310.2,134.5,316L134.5,316z M144.2,326.5c7.6-4.8,15.6-8.7,23.9-11.9
	c6.6,14.1,15.4,27.1,26.1,38.7C175,349.1,157.9,339.6,144.2,326.5L144.2,326.5z M210.2,349.6c-11.9-11.4-21.5-24.7-28.6-39.3
	c9.3-2.5,18.8-4,28.6-4.5V349.6z M210.2,291.7c-11.6,0.5-23,2.4-34.1,5.5c-4.6-12.7-7.4-26.2-8.1-40h42.2V291.7z M210.2,243H168
	c0.8-15.2,4-29.9,9.4-43.7c10.6,2.9,21.6,4.6,32.7,5.1V243z M210.2,190.2c-9.1-0.5-18.1-1.8-26.8-4c6.9-13.2,15.9-25.2,26.8-35.7
	V190.2z M287.7,171.1c-7.3,4.4-15,8-22.9,10.9c-6.4-12.8-14.6-24.7-24.5-35.3C258.3,150.7,274.5,159.3,287.7,171.1L287.7,171.1z
	 M224.3,150.5c10.9,10.5,19.9,22.6,26.8,35.7c-8.7,2.2-17.7,3.5-26.8,4V150.5z M224.3,204.4c11.2-0.5,22.1-2.2,32.7-5.1
	c5.4,13.8,8.7,28.5,9.4,43.7h-42.2V204.4z M224.3,257.1h42.2c-0.7,13.8-3.5,27.3-8.1,40c-11.1-3.1-22.5-4.9-34.1-5.5V257.1z
	 M224.3,305.8c9.7,0.5,19.3,2,28.6,4.5c-7,14.5-16.7,27.9-28.6,39.3V305.8L224.3,305.8z M240.3,353.4c10.7-11.6,19.5-24.6,26.1-38.7
	c8.3,3.2,16.3,7.1,23.9,11.9C276.7,339.6,259.5,349.1,240.3,353.4L240.3,353.4z M300,316c-8.9-5.8-18.4-10.6-28.2-14.4
	c5.1-14.2,8.1-29.1,8.8-44.5h42.2C321.4,279.3,313.1,299.6,300,316L300,316z M280.6,243c-0.8-16.7-4.2-32.8-10.1-48
	c9.5-3.6,18.6-8.1,27.3-13.5c14.3,16.8,23.4,38.1,25,61.5H280.6z M280.6,243"/>
<path class="st0" d="M323.2,405.4H111.3c-3.9,0-7.1,3.2-7.1,7.1c0,3.9,3.2,7.1,7.1,7.1h211.9c3.9,0,7.1-3.2,7.1-7.1
	C330.3,408.6,327.1,405.4,323.2,405.4L323.2,405.4z M323.2,405.4"/>
<path class="st0" d="M323.2,440.8H111.3c-3.9,0-7.1,3.2-7.1,7.1c0,3.9,3.2,7.1,7.1,7.1h211.9c3.9,0,7.1-3.2,7.1-7.1
	C330.3,443.9,327.1,440.8,323.2,440.8L323.2,440.8z M323.2,440.8"/>
<path class="st0" d="M83.1,497.3h248.6c10.9,0,19.9-8.9,19.9-19.8V137.9c-16.1-7.3-29.2-20.1-36.7-36.2H83.1V497.3z"/>
<path class="st0" d="M351.5,477.4c0,10.9-8.9,19.8-19.9,19.8H83.1V101.7h231.7c-2.1-4.5-3.8-9.2-4.9-14.1H76c-3.9,0-7.1,3.2-7.1,7.1
	v409.7c0,3.9,3.2,7.1,7.1,7.1h255.6c18.7,0,34-15.2,34-34V142.6c-4.9-1.1-9.6-2.7-14.1-4.7V477.4z"/>
<g>
	<path class="st0" d="M385.3,153.1c-3.2,0-6.4,0-9.6,0c-1-0.1-2-0.3-2.9-0.4c-16.1-1.8-30.4-7.7-42.4-18.5
		c-20.3-18.1-29-40.9-25.7-67.9c2.5-20.3,12.3-37,28.3-49.7c16.1-12.8,34.7-18.2,55.2-16.2c15.2,1.4,28.7,7.1,40.5,16.8
		c14.7,12.1,23.8,27.5,27.2,46.2c0.5,2.8,0.8,5.6,1.2,8.4c0,3.2,0,6.4,0,9.6c-0.2,1.9-0.4,3.7-0.7,5.6c-2.2,15.3-8.3,28.8-18.6,40.3
		c-11.8,13.2-26.5,21.5-43.9,24.7C391,152.4,388.1,152.7,385.3,153.1z M447.5,76.6c0-36.9-30-66.9-66.9-67
		c-36.9-0.1-67.1,30-67.1,67c0,36.9,30,66.9,66.9,67C417.3,143.6,447.5,113.5,447.5,76.6z"/>
	<path class="st0" d="M375.7,28.7c3.3,0,6.3,0,9.6,0c0,0.6,0,1.2,0,1.7c0,14.3,0,28.5,0,42.8c0,1,0.3,1.7,1,2.3
		c8.4,8.3,16.7,16.7,25.1,25c0.4,0.4,0.8,0.7,1.1,0.9c-2.3,2.3-4.5,4.5-6.8,6.8c-0.1-0.1-0.4-0.4-0.7-0.7
		c-9.4-9.4-18.8-18.8-28.2-28.2c-0.5-0.5-0.9-1.3-0.9-2c-0.1-15.8,0-31.7,0-47.5C375.7,29.5,375.7,29.2,375.7,28.7z"/>
</g>
</svg>
