<?xml version="1.0" encoding="utf-8"?>
<!-- Generator: Adobe Illustrator 23.0.4, SVG Export Plug-In . SVG Version: 6.00 Build 0)  -->
<svg version="1.1" id="Layer_1" xmlns:svgjs="http://svgjs.com/svgjs"
	 xmlns="http://www.w3.org/2000/svg" xmlns:xlink="http://www.w3.org/1999/xlink" x="0px" y="0px" viewBox="0 0 512 512"
	 style="enable-background:new 0 0 512 512;" xml:space="preserve">
<style type="text/css">
	.st0{fill:#FFFFFF;}
</style>
<g>
	<path class="st0" d="M-160.7,49.3h-26.9v-63.2c0-3.3-2.7-6-6-6c-0.6,0-1.2,0.1-1.7,0.2l-232.6,69c-12.3,0.7-21.9,10.8-21.9,23.1
		V449c0,12.8,10.4,23.1,23.1,23.1h266c12.8,0,23.1-10.4,23.1-23.1V72.4C-137.6,59.6-148,49.3-160.7,49.3z M-199.6-5.9v55.1h-186
		L-199.6-5.9z M-149.6,449c0,6.1-5,11.1-11.1,11.1h-266c-6.1,0-11.1-5-11.1-11.1V72.4c0-4,2.1-7.6,5.5-9.6l0.1,0.3l6.1-1.8h265.4
		c6.1,0,11.1,5,11.1,11.1V449z"/>
	<path class="st0" d="M-207.2,347.9h-173c-3.3,0-6,2.7-6,6s2.7,6,6,6h173c3.3,0,6-2.7,6-6S-203.9,347.9-207.2,347.9z"/>
	<path class="st0" d="M-254.2,388.1h-79c-3.3,0-6,2.7-6,6s2.7,6,6,6h79c3.3,0,6-2.7,6-6S-250.9,388.1-254.2,388.1z"/>
	<path class="st0" d="M-293.7,123.7c-49.8,0-90.3,40.4-90.3,90.3s40.4,90.3,90.3,90.3s90.3-40.4,90.3-90.3
		C-203.5,164.1-243.9,123.7-293.7,123.7L-293.7,123.7z M-321.1,140.8c-7.4,7.7-13.3,16.6-17.5,26.4c-3.7-2.6-7.1-5.4-10.3-8.6
		C-341,150.6-331.5,144.6-321.1,140.8L-321.1,140.8z M-356.7,167.6c4.3,4.1,8.9,7.9,13.9,11.1c-2.8,9.5-4.4,19.4-4.8,29.3h-24.1
		C-370.6,193.4-365.4,179.4-356.7,167.6L-356.7,167.6z M-371.7,219.9h24.1c0.4,9.9,2,19.8,4.8,29.3c-5,3.2-9.6,6.9-13.9,11.1
		C-365.4,248.6-370.6,234.6-371.7,219.9L-371.7,219.9z M-348.8,269.4c3.2-3.2,6.6-6,10.3-8.6c4.2,9.8,10.1,18.7,17.5,26.4
		C-331.5,283.3-341,277.2-348.8,269.4z M-299.7,289.2c-12.6-7.8-22.3-19.8-28.4-34.6c8.9-4.4,18.6-7,28.4-7.7V289.2z M-299.7,234.9
		c-11.2,0.7-22.2,3.6-32.3,8.3c-2-7.6-3.2-15.4-3.6-23.3h35.9V234.9z M-299.7,207.9h-35.9c0.4-7.9,1.6-15.7,3.6-23.3
		c10.2,4.8,21.1,7.6,32.3,8.3L-299.7,207.9z M-299.7,180.9c-9.9-0.7-19.5-3.4-28.4-7.7c6.2-14.8,15.9-26.7,28.4-34.5V180.9z
		 M-238.5,158.5c-3.2,3.2-6.6,6.1-10.3,8.6c-4.2-9.8-10.1-18.8-17.5-26.5C-255.9,144.6-246.4,150.8-238.5,158.5z M-287.7,138.7
		c12.6,7.9,22.3,19.8,28.5,34.6c-8.9,4.4-18.6,7-28.5,7.7V138.7z M-287.7,193c11.2-0.7,22.2-3.5,32.4-8.3c2,7.6,3.2,15.4,3.6,23.2
		h-36V193z M-287.7,219.9h35.9c-0.4,7.8-1.5,15.6-3.6,23.2c-10.2-4.8-21.2-7.6-32.4-8.3V220L-287.7,219.9z M-287.7,289.2v-42.3
		c9.9,0.7,19.6,3.3,28.5,7.7C-265.4,269.4-275.1,281.4-287.7,289.2L-287.7,289.2z M-266.3,287.2c7.4-7.7,13.3-16.7,17.5-26.5
		c3.7,2.6,7.1,5.5,10.3,8.6C-246.4,277.2-255.9,283.3-266.3,287.2z M-230.7,260.3c-4.2-4.2-8.9-7.9-13.9-11.1
		c2.8-9.5,4.4-19.3,4.8-29.2h24.1C-216.8,234.5-222,248.5-230.7,260.3z M-239.8,207.9c-0.4-9.9-2-19.7-4.8-29.2
		c5-3.2,9.6-7,13.9-11.1c8.7,11.8,13.9,25.7,15,40.3H-239.8z"/>
</g>
<path class="st0" d="M2013.5-65.7c-0.2-0.3-0.5-0.5-0.7-0.7c-20.7-21.9-49.6-35.9-81.7-37.3l-0.2-0.1l-5.2-0.1l-5.2,0.1l-0.2,0.1
	c-32.1,1.4-60.9,15.4-81.7,37.3c-0.2,0.3-0.6,0.4-0.8,0.7c0,0.1,0,0.1-0.1,0.2c-19.9,21.4-32.2,50.1-32.2,81.6
	c0,30.3,11.4,58,30,79.1c0.1,0.1,0.1,0.2,0.2,0.4c0.3,0.4,0.7,0.7,1.1,1c20.9,23,50.4,37.9,83.5,39.3l0.2,0.1l5.2,0.1l5.2-0.1
	l0.2-0.2c33.3-1.5,63-16.5,83.9-39.7c0.2-0.2,0.5-0.4,0.8-0.6c0.1-0.1,0.1-0.2,0.2-0.4c18.6-21.1,30-48.8,30-79.1
	c0-31.5-12.3-60.1-32.2-81.6C2013.6-65.6,2013.6-65.7,2013.5-65.7L2013.5-65.7z M1902.7-87.3c-9.9,10.6-18.1,22.5-24.5,35.3
	c-7.9-2.9-15.6-6.5-22.9-10.9C1868.5-74.7,1884.7-83.3,1902.7-87.3L1902.7-87.3z M1845.2-52.6c8.7,5.4,17.8,10,27.3,13.5
	c-5.9,15.2-9.3,31.3-10.1,48h-42.2C1821.7-14.4,1830.8-35.7,1845.2-52.6L1845.2-52.6z M1843,82c-13.1-16.4-21.4-36.7-22.8-58.9h42.2
	c0.7,15.4,3.7,30.3,8.8,44.5C1861.4,71.4,1851.9,76.2,1843,82L1843,82z M1852.7,92.6c7.6-4.8,15.6-8.7,23.9-11.9
	c6.6,14.1,15.4,27.1,26.1,38.7C1883.5,115.1,1866.4,105.7,1852.7,92.6L1852.7,92.6z M1918.7,115.6c-11.9-11.4-21.5-24.7-28.6-39.3
	c9.3-2.5,18.8-4,28.6-4.5V115.6z M1918.7,57.7c-11.6,0.5-23,2.4-34.1,5.5c-4.6-12.7-7.4-26.2-8.1-40h42.2V57.7z M1918.7,9h-42.2
	c0.8-15.2,4-29.9,9.4-43.7c10.6,2.9,21.6,4.6,32.7,5.1V9z M1918.7-43.8c-9.1-0.5-18.1-1.8-26.8-4c6.9-13.2,15.9-25.2,26.8-35.7
	V-43.8z M1996.2-62.9c-7.3,4.4-15,8-22.9,10.9c-6.4-12.8-14.6-24.7-24.5-35.3C1966.8-83.3,1983-74.7,1996.2-62.9L1996.2-62.9z
	 M1932.8-83.5c10.9,10.5,19.9,22.6,26.8,35.7c-8.7,2.2-17.7,3.5-26.8,4V-83.5z M1932.8-29.6c11.2-0.5,22.1-2.2,32.7-5.1
	c5.4,13.8,8.7,28.5,9.4,43.7h-42.2V-29.6z M1932.8,23.1h42.2c-0.7,13.8-3.5,27.3-8.1,40c-11.1-3.1-22.5-4.9-34.1-5.5V23.1z
	 M1932.8,71.8c9.7,0.5,19.3,2,28.6,4.5c-7,14.5-16.7,27.9-28.6,39.3V71.8L1932.8,71.8z M1948.8,119.4c10.7-11.6,19.5-24.6,26.1-38.7
	c8.3,3.2,16.3,7.1,23.9,11.9C1985.2,105.7,1968,115.1,1948.8,119.4L1948.8,119.4z M2008.5,82c-8.9-5.8-18.4-10.6-28.2-14.4
	c5.1-14.2,8.1-29.1,8.8-44.5h42.2C2029.9,45.3,2021.6,65.6,2008.5,82L2008.5,82z M1989.1,9c-0.8-16.7-4.2-32.8-10.1-48
	c9.5-3.6,18.6-8.1,27.3-13.5c14.3,16.8,23.4,38.1,25,61.5H1989.1z M1989.1,9"/>
<path class="st0" d="M2031.7,171.4h-211.9c-3.9,0-7.1,3.2-7.1,7.1c0,3.9,3.2,7.1,7.1,7.1h211.9c3.9,0,7.1-3.2,7.1-7.1
	C2038.8,174.6,2035.6,171.4,2031.7,171.4L2031.7,171.4z M2031.7,171.4"/>
<path class="st0" d="M2031.7,206.8h-211.9c-3.9,0-7.1,3.2-7.1,7.1c0,3.9,3.2,7.1,7.1,7.1h211.9c3.9,0,7.1-3.2,7.1-7.1
	C2038.8,209.9,2035.6,206.8,2031.7,206.8L2031.7,206.8z M2031.7,206.8"/>
<path class="st0" d="M1791.6,263.3h248.6c10.9,0,19.9-8.9,19.9-19.8V-96.1c-16.1-7.3-29.2-20.1-36.7-36.2h-231.7V263.3z"/>
<path class="st0" d="M2060,243.4c0,10.9-8.9,19.8-19.9,19.8h-248.6v-395.6h231.7c-2.1-4.5-3.8-9.2-4.9-14.1h-233.8
	c-3.9,0-7.1,3.2-7.1,7.1v409.7c0,3.9,3.2,7.1,7.1,7.1h255.6c18.7,0,34-15.2,34-34V-91.4c-4.9-1.1-9.6-2.7-14.1-4.7V243.4z"/>
<g>
	<path class="st0" d="M2093.8-80.9c-3.2,0-6.4,0-9.6,0c-1-0.1-2-0.3-2.9-0.4c-16.1-1.8-30.4-7.7-42.4-18.5
		c-20.3-18.1-29-40.9-25.7-67.9c2.5-20.3,12.3-37,28.3-49.7c16.1-12.8,34.7-18.2,55.2-16.2c15.2,1.4,28.7,7.1,40.5,16.8
		c14.7,12.1,23.8,27.5,27.2,46.2c0.5,2.8,0.8,5.6,1.2,8.4c0,3.2,0,6.4,0,9.6c-0.2,1.9-0.4,3.7-0.7,5.6c-2.2,15.3-8.3,28.8-18.6,40.3
		c-11.8,13.2-26.5,21.5-43.9,24.7C2099.5-81.6,2096.6-81.3,2093.8-80.9z M2156-157.4c0-36.9-30-66.9-66.9-67
		c-36.9-0.1-67.1,30-67.1,67c0,36.9,30,66.9,66.9,67C2125.8-90.4,2156-120.5,2156-157.4z"/>
	<path class="st0" d="M2084.2-205.3c3.3,0,6.3,0,9.6,0c0,0.6,0,1.2,0,1.7c0,14.3,0,28.5,0,42.8c0,1,0.3,1.7,1,2.3
		c8.4,8.3,16.7,16.7,25.1,25c0.4,0.4,0.8,0.7,1.1,0.9c-2.3,2.3-4.5,4.5-6.8,6.8c-0.1-0.1-0.4-0.4-0.7-0.7
		c-9.4-9.4-18.8-18.8-28.2-28.2c-0.5-0.5-0.9-1.3-0.9-2c-0.1-15.8,0-31.7,0-47.5C2084.2-204.5,2084.2-204.8,2084.2-205.3z"/>
</g>
<path d="M307.7,168.6c-0.2-0.3-0.5-0.5-0.7-0.7c-20.7-21.9-49.6-35.9-81.7-37.3l-0.2-0.1l-5.2-0.1l-5.2,0.1l-0.2,0.1
	c-32.1,1.4-60.9,15.4-81.7,37.3c-0.2,0.3-0.6,0.4-0.8,0.7c0,0.1,0,0.1-0.1,0.2c-19.9,21.4-32.2,50.1-32.2,81.6
	c0,30.3,11.4,58,30,79.1c0.1,0.1,0.1,0.2,0.2,0.4c0.3,0.4,0.7,0.7,1.1,1c20.9,23,50.4,37.9,83.5,39.3l0.2,0.1l5.2,0.1l5.2-0.1
	l0.2-0.2c33.3-1.5,63-16.5,83.9-39.7c0.2-0.2,0.5-0.4,0.8-0.6c0.1-0.1,0.1-0.2,0.2-0.4c18.6-21.1,30-48.8,30-79.1
	c0-31.5-12.3-60.1-32.2-81.6C307.7,168.7,307.7,168.6,307.7,168.6L307.7,168.6z M196.8,147c-9.9,10.6-18.1,22.5-24.5,35.3
	c-7.9-2.9-15.6-6.5-22.9-10.9C162.7,159.6,178.9,151,196.8,147L196.8,147z M139.3,181.7c8.7,5.4,17.8,10,27.3,13.5
	c-5.9,15.2-9.3,31.3-10.1,48h-42.2C115.9,219.9,125,198.6,139.3,181.7L139.3,181.7z M137.1,316.3c-13.1-16.4-21.4-36.7-22.8-58.9
	h42.2c0.7,15.4,3.7,30.3,8.8,44.5C155.5,305.7,146.1,310.5,137.1,316.3L137.1,316.3z M146.8,326.9c7.6-4.8,15.6-8.7,23.9-11.9
	c6.6,14.1,15.4,27.1,26.1,38.7C177.7,349.4,160.5,340,146.8,326.9L146.8,326.9z M212.8,349.9c-11.9-11.4-21.5-24.7-28.6-39.3
	c9.3-2.5,18.8-4,28.6-4.5V349.9z M212.8,292c-11.6,0.5-23,2.4-34.1,5.5c-4.6-12.7-7.4-26.2-8.1-40h42.2V292z M212.8,243.3h-42.2
	c0.8-15.2,4-29.9,9.4-43.7c10.6,2.9,21.6,4.6,32.7,5.1V243.3z M212.8,190.5c-9.1-0.5-18.1-1.8-26.8-4c6.9-13.2,15.9-25.2,26.8-35.7
	V190.5z M290.4,171.4c-7.3,4.4-15,8-22.9,10.9c-6.4-12.8-14.6-24.7-24.5-35.3C260.9,151,277.1,159.6,290.4,171.4L290.4,171.4z
	 M227,150.8c10.9,10.5,19.9,22.6,26.8,35.7c-8.7,2.2-17.7,3.5-26.8,4V150.8z M227,204.7c11.2-0.5,22.1-2.2,32.7-5.1
	c5.4,13.8,8.7,28.5,9.4,43.7H227V204.7z M227,257.4h42.2c-0.7,13.8-3.5,27.3-8.1,40c-11.1-3.1-22.5-4.9-34.1-5.5V257.4z M227,306.1
	c9.7,0.5,19.3,2,28.6,4.5c-7,14.5-16.7,27.9-28.6,39.3V306.1L227,306.1z M243,353.7c10.7-11.6,19.5-24.6,26.1-38.7
	c8.3,3.2,16.3,7.1,23.9,11.9C279.3,340,262.1,349.4,243,353.7L243,353.7z M302.7,316.3c-8.9-5.8-18.4-10.6-28.2-14.4
	c5.1-14.2,8.1-29.1,8.8-44.5h42.2C324,279.6,315.8,299.9,302.7,316.3L302.7,316.3z M283.3,243.3c-0.8-16.7-4.2-32.8-10.1-48
	c9.5-3.6,18.6-8.1,27.3-13.5c14.3,16.8,23.4,38.1,25,61.5H283.3z M283.3,243.3"/>
<path d="M325.9,405.7H114c-3.9,0-7.1,3.2-7.1,7.1c0,3.9,3.2,7.1,7.1,7.1h211.9c3.9,0,7.1-3.2,7.1-7.1
	C332.9,408.9,329.8,405.7,325.9,405.7L325.9,405.7z M325.9,405.7"/>
<path d="M325.9,441.1H114c-3.9,0-7.1,3.2-7.1,7.1c0,3.9,3.2,7.1,7.1,7.1h211.9c3.9,0,7.1-3.2,7.1-7.1
	C332.9,444.2,329.8,441.1,325.9,441.1L325.9,441.1z M325.9,441.1"/>
<path d="M354.1,477.7c0,10.9-8.9,19.8-19.9,19.8H85.7V102h231.7c-2.1-4.5-3.8-9.2-4.9-14.1H78.6c-3.9,0-7.1,3.2-7.1,7.1v409.7
	c0,3.9,3.2,7.1,7.1,7.1h255.6c18.7,0,34-15.2,34-34V142.9c-4.9-1.1-9.6-2.7-14.1-4.7V477.7z"/>
<g>
	<path d="M387.9,153.4c-3.2,0-6.4,0-9.6,0c-1-0.1-2-0.3-2.9-0.4c-16.1-1.8-30.4-7.7-42.4-18.5c-20.3-18.1-29-40.9-25.7-67.9
		c2.5-20.3,12.3-37,28.3-49.7c16.1-12.8,34.7-18.2,55.2-16.2c15.2,1.4,28.7,7.1,40.5,16.8c14.7,12.1,23.8,27.5,27.2,46.2
		c0.5,2.8,0.8,5.6,1.2,8.4c0,3.2,0,6.4,0,9.6c-0.2,1.9-0.4,3.7-0.7,5.6c-2.2,15.3-8.3,28.8-18.6,40.3
		c-11.8,13.2-26.5,21.5-43.9,24.7C393.6,152.7,390.8,153,387.9,153.4z M450.1,76.9c0-36.9-30-66.9-66.9-67
		c-36.9-0.1-67.1,30-67.1,67c0,36.9,30,66.9,66.9,67C419.9,143.9,450.1,113.8,450.1,76.9z"/>
	<path d="M378.3,29c3.3,0,6.3,0,9.6,0c0,0.6,0,1.2,0,1.7c0,14.3,0,28.5,0,42.8c0,1,0.3,1.7,1,2.3c8.4,8.3,16.7,16.7,25.1,25
		c0.4,0.4,0.8,0.7,1.1,0.9c-2.3,2.3-4.5,4.5-6.8,6.8c-0.1-0.1-0.4-0.4-0.7-0.7c-9.4-9.4-18.8-18.8-28.2-28.2c-0.5-0.5-0.9-1.3-0.9-2
		c-0.1-15.8,0-31.7,0-47.5C378.3,29.8,378.3,29.5,378.3,29z"/>
</g>
<image style="overflow:visible;" width="512" height="512" xlink:href="../Downloads/check-mark.png"  transform="matrix(1 0 0 1 394.0532 652.6309)">
</image>
</svg>
