<?xml version="1.0" encoding="utf-8"?>
<!-- Generator: Adobe Illustrator 23.0.4, SVG Export Plug-In . SVG Version: 6.00 Build 0)  -->
<svg version="1.1" id="Layer_1" xmlns:svgjs="http://svgjs.com/svgjs"
	 xmlns="http://www.w3.org/2000/svg" xmlns:xlink="http://www.w3.org/1999/xlink" x="0px" y="0px" viewBox="0 0 512 512"
	 style="enable-background:new 0 0 512 512;" xml:space="preserve">
<style type="text/css">
	.st0{fill:#FFFFFF;}
</style>
<path d="M298.1,168.6c-0.2-0.3-0.5-0.5-0.7-0.7c-20.7-21.9-49.6-35.9-81.7-37.3l-0.2-0.1l-5.2-0.1l-5.2,0.1l-0.2,0.1
	c-32.1,1.4-60.9,15.4-81.7,37.3c-0.2,0.3-0.6,0.4-0.8,0.7c0,0.1,0,0.1-0.1,0.2c-19.9,21.4-32.2,50.1-32.2,81.6
	c0,30.3,11.4,58,30,79.1c0.1,0.1,0.1,0.2,0.2,0.4c0.3,0.4,0.7,0.7,1.1,1c20.9,23,50.4,37.9,83.5,39.3l0.2,0.1l5.2,0.1l5.2-0.1
	l0.2-0.2c33.3-1.5,63-16.5,83.9-39.7c0.2-0.2,0.5-0.4,0.8-0.6c0.1-0.1,0.1-0.2,0.2-0.4c18.6-21.1,30-48.8,30-79.1
	c0-31.5-12.3-60.1-32.2-81.6C298.1,168.7,298.1,168.6,298.1,168.6L298.1,168.6z M187.2,147c-9.9,10.6-18.1,22.5-24.5,35.3
	c-7.9-2.9-15.6-6.5-22.9-10.9C153.1,159.6,169.3,151,187.2,147L187.2,147z M129.7,181.7c8.7,5.4,17.8,10,27.3,13.5
	c-5.9,15.2-9.3,31.3-10.1,48h-42.2C106.2,219.9,115.3,198.6,129.7,181.7L129.7,181.7z M127.5,316.3c-13.1-16.4-21.4-36.7-22.8-58.9
	h42.2c0.7,15.4,3.7,30.3,8.8,44.5C145.9,305.7,136.4,310.5,127.5,316.3L127.5,316.3z M137.2,326.9c7.6-4.8,15.6-8.7,23.9-11.9
	c6.6,14.1,15.4,27.1,26.1,38.7C168.1,349.4,150.9,340,137.2,326.9L137.2,326.9z M203.2,349.9c-11.9-11.4-21.5-24.7-28.6-39.3
	c9.3-2.5,18.8-4,28.6-4.5V349.9z M203.2,292c-11.6,0.5-23,2.4-34.1,5.5c-4.6-12.7-7.4-26.2-8.1-40h42.2V292z M203.2,243.3H161
	c0.8-15.2,4-29.9,9.4-43.7c10.6,2.9,21.6,4.6,32.7,5.1V243.3z M203.2,190.5c-9.1-0.5-18.1-1.8-26.8-4c6.9-13.2,15.9-25.2,26.8-35.7
	V190.5z M280.8,171.4c-7.3,4.4-15,8-22.9,10.9c-6.4-12.8-14.6-24.7-24.5-35.3C251.3,151,267.5,159.6,280.8,171.4L280.8,171.4z
	 M217.3,150.8c10.9,10.5,19.9,22.6,26.8,35.7c-8.7,2.2-17.7,3.5-26.8,4V150.8z M217.3,204.7c11.2-0.5,22.1-2.2,32.7-5.1
	c5.4,13.8,8.7,28.5,9.4,43.7h-42.2V204.7z M217.3,257.4h42.2c-0.7,13.8-3.5,27.3-8.1,40c-11.1-3.1-22.5-4.9-34.1-5.5V257.4z
	 M217.3,306.1c9.7,0.5,19.3,2,28.6,4.5c-7,14.5-16.7,27.9-28.6,39.3V306.1L217.3,306.1z M233.4,353.7c10.7-11.6,19.5-24.6,26.1-38.7
	c8.3,3.2,16.3,7.1,23.9,11.9C269.7,340,252.5,349.4,233.4,353.7L233.4,353.7z M293,316.3c-8.9-5.8-18.4-10.6-28.2-14.4
	c5.1-14.2,8.1-29.1,8.8-44.5h42.2C314.4,279.6,306.1,299.9,293,316.3L293,316.3z M273.7,243.3c-0.8-16.7-4.2-32.8-10.1-48
	c9.5-3.6,18.6-8.1,27.3-13.5c14.3,16.8,23.4,38.1,25,61.5H273.7z M273.7,243.3"/>
<path d="M316.2,405.7H104.3c-3.9,0-7.1,3.2-7.1,7.1c0,3.9,3.2,7.1,7.1,7.1h211.9c3.9,0,7.1-3.2,7.1-7.1
	C323.3,408.9,320.1,405.7,316.2,405.7L316.2,405.7z M316.2,405.7"/>
<path d="M316.2,441.1H104.3c-3.9,0-7.1,3.2-7.1,7.1c0,3.9,3.2,7.1,7.1,7.1h211.9c3.9,0,7.1-3.2,7.1-7.1
	C323.3,444.2,320.1,441.1,316.2,441.1L316.2,441.1z M316.2,441.1"/>
<path d="M344.5,477.7c0,10.9-8.9,19.8-19.9,19.8H76.1V102h231.7c-2.1-4.5-3.8-9.2-4.9-14.1H69c-3.9,0-7.1,3.2-7.1,7.1v409.7
	c0,3.9,3.2,7.1,7.1,7.1h255.6c18.7,0,34-15.2,34-34V142.9c-4.9-1.1-9.6-2.7-14.1-4.7V477.7z"/>
<g>
	<g>
		<path d="M364.1,0.7c2.9,0,5.9,0,8.8,0c0.4,0.1,0.8,0.2,1.1,0.2c10.5,0.7,20.5,3.5,29.8,8.6C425,21.3,438,39,442.5,62.8
			c0.5,2.9,0.8,5.8,1.2,8.7c0,2.9,0,5.9,0,8.8c-0.1,0.4-0.2,0.8-0.2,1.3c-0.7,10.5-3.4,20.5-8.6,29.6c-13.8,24.6-35,38-63.2,39.8
			c-12.2,0.8-23.9-1.5-34.9-7c-26.8-13.3-41.4-35.1-43.3-64.9c-0.9-13.7,2.2-26.7,8.8-38.7c11.7-21.1,29.5-34,53.3-38.5
			C358.4,1.4,361.3,1.1,364.1,0.7z M368.5,12.5c-35,0-63.4,28.4-63.4,63.4c0,35,28.4,63.5,63.4,63.5c35,0,63.4-28.4,63.4-63.4
			C432,41,403.6,12.5,368.5,12.5z"/>
		<path d="M358.5,87.6c0.4-0.6,0.6-1.2,1-1.6c11.1-11.1,22.2-22.2,33.3-33.3c1.3-1.3,2.8-2.3,4.7-2.3c2.4,0,4.1,1.1,5.2,3.2
			c1.1,2.1,0.9,4.2-0.4,6.1c-0.4,0.6-0.9,1.1-1.4,1.5c-12.6,12.6-25.2,25.3-37.9,37.9c-3.3,3.3-6.5,3.3-9.8,0
			c-5.9-5.9-11.8-11.8-17.6-17.6c-2.7-2.7-2.8-6.3-0.3-8.7c2.2-2.2,5.7-2.3,8.1,0c2,1.8,3.9,3.8,5.8,5.8
			C352.3,81.3,355.2,84.3,358.5,87.6z"/>
	</g>
</g>
</svg>
